<?xml version="1.0" encoding="UTF-8"?>
<svg width="127px" height="20px" viewBox="0 0 127 20" version="1.1" xmlns="http://www.w3.org/2000/svg" xmlns:xlink="http://www.w3.org/1999/xlink">
    <!-- Generator: Sketch 53 (72520) - https://sketchapp.com -->
    <title>logotipo-with-r-33 copy</title>
    <desc>Created with Sketch.</desc>
    <g id="WEBSITE" stroke="none" stroke-width="1" fill="none" fill-rule="evenodd">
        <g id="1D-Landing-Flowing" transform="translate(-65.000000, -17.000000)" fill="#FFFFFF" fill-rule="nonzero">
            <g id="logotipo-with-r-33-copy" transform="translate(65.000000, 17.000000)">
                <path d="M123.85,2.15 C124.5,2.15 124.9,2.55 124.9,3 C124.9,3.4 124.7,3.65 124.35,3.8 C124.65,3.85 124.8,4.1 124.85,4.4 C124.85,5.05 124.9,5.25 124.95,5.35 L124.4,5.35 C124.35,5.15 124.35,4.8 124.35,4.5 C124.35,4.15 124.2,4 123.85,4 L123.05,4 L123.05,5.35 L122.55,5.35 L122.55,2.15 L123.85,2.15 Z M123.7,3.6 C124.15,3.6 124.35,3.4 124.35,3.05 C124.35,2.7 124.1,2.55 123.75,2.55 L122.95,2.55 L122.95,3.6 L123.7,3.6 L123.7,3.6 Z" id="Shape"></path>
                <path d="M123.55,7.25 C121.65,7.25 120.15,5.7 120.15,3.85 C120.15,2 121.7,0.45 123.55,0.45 C125.4,0.45 126.95,2 126.95,3.85 C126.95,5.7 125.45,7.25 123.55,7.25 Z M123.55,0.95 C121.95,0.95 120.65,2.25 120.65,3.85 C120.65,5.45 121.95,6.75 123.55,6.75 C125.15,6.75 126.45,5.45 126.45,3.85 C126.45,2.25 125.15,0.95 123.55,0.95 Z" id="Shape"></path>
                <g id="Group" transform="translate(0.000000, 0.500000)">
                    <g transform="translate(76.500000, 0.000000)" id="Path">
                        <polygon points="3 19 0.05 19 0.05 0.3 3 0.3"></polygon>
                        <polygon points="17.9 19 9.45 4.5 9.45 19 6.55 19 6.55 0.3 10.3 0.3 18.8 15 18.8 0.3 21.7 0.3 21.7 19"></polygon>
                        <path d="M38.35,16.8 C37.65,17.9 36.05,19.3 32.95,19.3 C26.1,19.3 24.65,13.2 24.65,9.75 C24.65,5.35 26.8,0 33.3,0 C39.4,0 40.45,4.85 40.55,6.15 L37.4,6.15 C37,3.7 35.35,2.6 33.1,2.6 C29.25,2.6 27.75,6.25 27.75,9.65 C27.75,13.2 29.15,16.7 33.1,16.7 C36.8,16.7 38.2,14.4 38.2,11.8 L33.1,11.8 L33.1,9.3 L41,9.3 L41,19 L38.35,19 L38.35,16.8 Z"></path>
                    </g>
                    <g>
                        <polygon id="Path" points="2.95 2.9 2.95 8.85 11.6 8.85 11.6 11.5 2.95 11.5 2.95 19 0 19 0 0.3 12.1 0.3 12.1 2.9"></polygon>
                        <polygon id="Path" points="14.95 19 14.95 0.3 17.9 0.3 17.9 16.4 26.85 16.4 26.85 19"></polygon>
                        <path d="M35.1,19.3 C30.3,19.3 26.85,15.8 26.85,9.7 C26.85,3.6 30.3,0 35.1,0 C39.85,0 43.35,3.6 43.35,9.65 C43.35,15.8 39.85,19.3 35.1,19.3 Z M35.1,2.6 C31.85,2.6 29.95,5.05 29.95,9.65 C29.95,14.1 31.85,16.65 35.1,16.65 C38.35,16.65 40.25,14.1 40.25,9.65 C40.25,5.1 38.35,2.6 35.1,2.6 Z" id="Shape"></path>
                    </g>
                    <path d="M68.65,5.05 L68.65,13.85 C68.65,15.2 67.55,16.3 66.2,16.3 C64.85,16.3 63.75,15.2 63.75,13.85 C63.75,13.85 63.75,5.05 63.75,5 L63.75,5 L63.75,5 C63.65,2.6 61.7,0.65 59.25,0.65 C56.8,0.65 54.8,2.6 54.75,5.05 L54.75,5.05 L54.75,5.2 L54.75,13.95 C54.75,15.3 53.65,16.4 52.3,16.4 C50.95,16.4 49.85,15.3 49.85,13.95 L49.85,5.7 C49.85,2.7 47.4,0.3 44.45,0.3 L44.45,3.25 C45.8,3.25 46.9,4.35 46.9,5.7 L46.9,13.85 C46.9,16.85 49.35,19.25 52.3,19.25 C55.25,19.25 57.7,16.8 57.7,13.85 L57.7,5.15 C57.7,4.3 58.4,3.6 59.25,3.6 C60.1,3.6 60.75,4.25 60.8,5.05 L60.8,13.85 C60.8,16.85 63.25,19.25 66.2,19.25 C69.15,19.25 71.6,16.8 71.6,13.85 L71.6,5.7 C71.6,4.35 72.7,3.25 74.05,3.25 L74.05,0.3 C71.3,0.3 69,2.35 68.65,5.05 Z" id="Path"></path>
                </g>
            </g>
        </g>
    </g>
</svg>